<?xml version="1.0" encoding="UTF-8"?>
<svg xmlns="http://www.w3.org/2000/svg" xmlns:xlink="http://www.w3.org/1999/xlink" width="16px" height="16px" viewBox="0 0 16 16" version="1.1">
<g id="surface1">
<path style="fill:none;stroke-width:1.5;stroke-linecap:round;stroke-linejoin:round;stroke:rgb(100%,100%,100%);stroke-opacity:1;stroke-miterlimit:4;" d="M 14.132812 11.337891 C 14.519531 9.697266 13.089844 8.267578 11.449219 8.660156 C 10.681641 8.847656 10.048828 9.480469 9.861328 10.248047 C 9.46875 11.888672 10.898438 13.318359 12.539062 12.931641 C 13.318359 12.738281 13.951172 12.111328 14.132812 11.337891 Z M 14.132812 11.337891 " transform="matrix(0.666667,0,0,0.666667,0,0)"/>
<path style="fill:none;stroke-width:1.5;stroke-linecap:round;stroke-linejoin:round;stroke:rgb(100%,100%,100%);stroke-opacity:1;stroke-miterlimit:4;" d="M 18.011719 17.191406 C 19.722656 15.591797 20.789062 13.318359 20.789062 10.787109 C 20.789062 5.929688 16.851562 1.998047 12 1.998047 C 7.148438 1.998047 3.210938 5.941406 3.210938 10.787109 C 3.210938 13.330078 4.289062 15.621094 6.017578 17.220703 " transform="matrix(0.666667,0,0,0.666667,0,0)"/>
<path style="fill:none;stroke-width:1.5;stroke-linecap:round;stroke-linejoin:round;stroke:rgb(100%,100%,100%);stroke-opacity:1;stroke-miterlimit:4;" d="M 7.998047 14.548828 C 7.078125 13.570312 6.509766 12.251953 6.509766 10.787109 C 6.509766 7.757812 8.970703 5.302734 12 5.302734 C 15.029297 5.302734 17.490234 7.757812 17.490234 10.787109 C 17.490234 12.251953 16.921875 13.558594 16.001953 14.548828 " transform="matrix(0.666667,0,0,0.666667,0,0)"/>
<path style="fill:none;stroke-width:1.5;stroke-linecap:round;stroke-linejoin:round;stroke:rgb(100%,100%,100%);stroke-opacity:1;stroke-miterlimit:4;" d="M 10.300781 16.658203 L 8.859375 18.451172 C 7.722656 19.880859 8.730469 21.990234 10.558594 21.990234 L 13.429688 21.990234 C 15.257812 21.990234 16.277344 19.869141 15.128906 18.451172 L 13.6875 16.658203 C 12.832031 15.568359 11.167969 15.568359 10.300781 16.658203 Z M 10.300781 16.658203 " transform="matrix(0.666667,0,0,0.666667,0,0)"/>
</g>
</svg>
