<?xml version="1.0" encoding="UTF-8"?>
<svg xmlns="http://www.w3.org/2000/svg" xmlns:xlink="http://www.w3.org/1999/xlink" width="16px" height="16px" viewBox="0 0 16 16" version="1.1">
<g id="surface1">
<path style=" stroke:none;fill-rule:nonzero;fill:rgb(100%,100%,100%);fill-opacity:1;" d="M 12 8 C 12 10.210938 10.210938 12 8 12 C 5.789062 12 4 10.210938 4 8 C 4 5.789062 5.789062 4 8 4 C 10.210938 4 12 5.789062 12 8 Z M 12 8 "/>
<path style=" stroke:none;fill-rule:evenodd;fill:rgb(100%,100%,100%);fill-opacity:1;" d="M 8 0.832031 C 8.277344 0.832031 8.5 1.058594 8.5 1.332031 L 8.5 2 C 8.5 2.277344 8.277344 2.5 8 2.5 C 7.722656 2.5 7.5 2.277344 7.5 2 L 7.5 1.332031 C 7.5 1.058594 7.722656 0.832031 8 0.832031 Z M 2.933594 2.933594 C 3.128906 2.738281 3.445312 2.738281 3.640625 2.933594 L 3.902344 3.195312 C 4.097656 3.390625 4.097656 3.707031 3.902344 3.902344 C 3.707031 4.097656 3.390625 4.097656 3.195312 3.902344 L 2.933594 3.640625 C 2.738281 3.445312 2.738281 3.128906 2.933594 2.933594 Z M 13.066406 2.933594 C 13.261719 3.128906 13.261719 3.445312 13.066406 3.640625 L 12.804688 3.902344 C 12.609375 4.097656 12.292969 4.097656 12.097656 3.902344 C 11.902344 3.707031 11.902344 3.390625 12.097656 3.195312 L 12.359375 2.933594 C 12.554688 2.738281 12.871094 2.738281 13.066406 2.933594 Z M 0.832031 8 C 0.832031 7.722656 1.058594 7.5 1.332031 7.5 L 2 7.5 C 2.277344 7.5 2.5 7.722656 2.5 8 C 2.5 8.277344 2.277344 8.5 2 8.5 L 1.332031 8.5 C 1.058594 8.5 0.832031 8.277344 0.832031 8 Z M 13.5 8 C 13.5 7.722656 13.722656 7.5 14 7.5 L 14.667969 7.5 C 14.941406 7.5 15.167969 7.722656 15.167969 8 C 15.167969 8.277344 14.941406 8.5 14.667969 8.5 L 14 8.5 C 13.722656 8.5 13.5 8.277344 13.5 8 Z M 12.097656 12.097656 C 12.292969 11.902344 12.609375 11.902344 12.804688 12.097656 L 13.066406 12.359375 C 13.261719 12.554688 13.261719 12.871094 13.066406 13.066406 C 12.871094 13.261719 12.554688 13.261719 12.359375 13.066406 L 12.097656 12.804688 C 11.902344 12.609375 11.902344 12.292969 12.097656 12.097656 Z M 3.902344 12.097656 C 4.097656 12.292969 4.097656 12.609375 3.902344 12.804688 L 3.640625 13.066406 C 3.445312 13.261719 3.128906 13.261719 2.933594 13.066406 C 2.738281 12.871094 2.738281 12.554688 2.933594 12.359375 L 3.195312 12.097656 C 3.390625 11.902344 3.707031 11.902344 3.902344 12.097656 Z M 8 13.5 C 8.277344 13.5 8.5 13.722656 8.5 14 L 8.5 14.667969 C 8.5 14.941406 8.277344 15.167969 8 15.167969 C 7.722656 15.167969 7.5 14.941406 7.5 14.667969 L 7.5 14 C 7.5 13.722656 7.722656 13.5 8 13.5 Z M 8 13.5 "/>
</g>
</svg>
