<?xml version="1.0" encoding="UTF-8"?>
<svg xmlns="http://www.w3.org/2000/svg" xmlns:xlink="http://www.w3.org/1999/xlink" width="16px" height="16px" viewBox="0 0 16 16" version="1.1">
<g id="surface1">
<path style=" stroke:none;fill-rule:nonzero;fill:rgb(100%,100%,100%);fill-opacity:1;" d="M 15.5 9.1875 C 15.78125 9.164062 16 8.929688 16 8.644531 L 16 7.351562 C 16 7.070312 15.78125 6.835938 15.5 6.8125 L 13.785156 6.679688 C 13.679688 6.671875 13.585938 6.601562 13.542969 6.5 L 12.980469 5.140625 C 12.9375 5.039062 12.953125 4.925781 13.027344 4.84375 L 14.144531 3.535156 C 14.328125 3.320312 14.316406 3 14.113281 2.800781 L 13.199219 1.886719 C 13 1.6875 12.679688 1.671875 12.464844 1.855469 L 11.15625 2.972656 C 11.074219 3.046875 10.957031 3.0625 10.859375 3.023438 L 9.5 2.457031 C 9.398438 2.417969 9.328125 2.320312 9.320312 2.214844 L 9.1875 0.5 C 9.164062 0.21875 8.929688 0 8.648438 0 L 7.355469 0 C 7.070312 0 6.835938 0.21875 6.8125 0.5 L 6.679688 2.214844 C 6.671875 2.320312 6.601562 2.417969 6.5 2.457031 L 5.140625 3.023438 C 5.039062 3.0625 4.925781 3.046875 4.84375 2.976562 L 3.535156 1.859375 C 3.320312 1.671875 3 1.6875 2.800781 1.886719 L 1.886719 2.800781 C 1.6875 3 1.671875 3.320312 1.855469 3.535156 L 2.972656 4.84375 C 3.042969 4.925781 3.0625 5.039062 3.019531 5.140625 L 2.457031 6.5 C 2.417969 6.601562 2.320312 6.671875 2.214844 6.679688 L 0.5 6.8125 C 0.21875 6.835938 0 7.070312 0 7.355469 L 0 8.644531 C 0 8.929688 0.21875 9.164062 0.5 9.1875 L 2.214844 9.320312 C 2.320312 9.328125 2.417969 9.398438 2.457031 9.5 L 3.023438 10.859375 C 3.0625 10.960938 3.046875 11.074219 2.976562 11.15625 L 1.859375 12.464844 C 1.675781 12.679688 1.6875 13 1.886719 13.199219 L 2.800781 14.113281 C 3 14.3125 3.320312 14.328125 3.535156 14.140625 L 4.84375 13.023438 C 4.925781 12.953125 5.039062 12.9375 5.140625 12.976562 L 6.5 13.542969 C 6.601562 13.582031 6.671875 13.679688 6.679688 13.785156 L 6.8125 15.5 C 6.835938 15.78125 7.070312 16 7.355469 16 L 8.648438 16 C 8.929688 16 9.164062 15.78125 9.1875 15.5 L 9.320312 13.785156 C 9.328125 13.679688 9.398438 13.582031 9.5 13.542969 L 10.859375 12.976562 C 10.960938 12.9375 11.074219 12.953125 11.15625 13.023438 L 12.464844 14.140625 C 12.679688 14.328125 13 14.3125 13.199219 14.113281 L 14.113281 13.199219 C 14.316406 13 14.328125 12.679688 14.144531 12.464844 L 13.027344 11.15625 C 12.957031 11.074219 12.9375 10.960938 12.980469 10.859375 L 13.542969 9.5 C 13.585938 9.398438 13.679688 9.328125 13.785156 9.320312 Z M 8 10.703125 C 7.277344 10.703125 6.597656 10.421875 6.085938 9.914062 C 5.578125 9.402344 5.296875 8.722656 5.296875 8 C 5.296875 7.277344 5.578125 6.597656 6.085938 6.089844 C 6.597656 5.578125 7.277344 5.296875 8 5.296875 C 8.722656 5.296875 9.402344 5.578125 9.914062 6.089844 C 10.421875 6.597656 10.703125 7.277344 10.703125 8 C 10.703125 8.722656 10.421875 9.402344 9.914062 9.914062 C 9.402344 10.421875 8.722656 10.703125 8 10.703125 Z M 8 10.703125 "/>
</g>
</svg>
