<?xml version="1.0" encoding="UTF-8"?>
<svg xmlns="http://www.w3.org/2000/svg" xmlns:xlink="http://www.w3.org/1999/xlink" width="30px" height="30px" viewBox="0 0 30 30" version="1.1">
<g id="surface1">
<path style=" stroke:none;fill-rule:nonzero;fill:rgb(100%,0%,0%);fill-opacity:1;" d="M 28.75 15 C 28.75 7.40625 22.59375 1.25 15 1.25 C 7.40625 1.25 1.25 7.40625 1.25 15 C 1.25 22.59375 7.40625 28.75 15 28.75 C 22.59375 28.75 28.75 22.59375 28.75 15 Z M 28.75 15 "/>
<path style=" stroke:none;fill-rule:nonzero;fill:rgb(100%,100%,100%);fill-opacity:1;" d="M 15 8.445312 C 18.617188 8.445312 21.554688 11.382812 21.554688 15 C 21.554688 18.617188 18.617188 21.554688 15 21.554688 C 11.382812 21.554688 8.445312 18.617188 8.445312 15 C 8.445312 11.382812 11.382812 8.445312 15 8.445312 M 15 7.8125 C 11.03125 7.8125 7.8125 11.03125 7.8125 15 C 7.8125 18.96875 11.03125 22.1875 15 22.1875 C 18.96875 22.1875 22.1875 18.96875 22.1875 15 C 22.1875 11.03125 18.96875 7.8125 15 7.8125 Z M 15 7.8125 "/>
<path style=" stroke:none;fill-rule:nonzero;fill:rgb(100%,100%,100%);fill-opacity:1;" d="M 12.5 18.59375 L 18.59375 14.84375 L 12.5 11.40625 Z M 12.5 18.59375 "/>
</g>
</svg>
